<?xml version="1.0" encoding="utf-8"?>
<!-- Generator: Adobe Illustrator 22.0.0, SVG Export Plug-In . SVG Version: 6.00 Build 0)  -->
<svg version="1.1" id="Layer_1" xmlns="http://www.w3.org/2000/svg" xmlns:xlink="http://www.w3.org/1999/xlink" x="0px" y="0px"
	 width="306.4px" height="356.3px" viewBox="0 0 306.4 356.3" style="enable-background:new 0 0 306.4 356.3;" xml:space="preserve"
	>
<style type="text/css">
	.st0{fill:#003F77;}
	.st1{fill:#145682;}
	.st2{enable-background:new    ;}
	.st3{opacity:0.502;fill:#0B7EF4;enable-background:new    ;}
	.st4{fill:#2676C8;}
	.st5{opacity:0.749;fill:#7BC7FF;enable-background:new    ;}
	.st6{fill:#88BFEA;}
	.st7{opacity:0.749;fill:#FFFFFF;stroke:#7BC7FF;stroke-miterlimit:10;enable-background:new    ;}
	.st8{fill:#FFFFFF;}
	.st9{fill:#0F4E90;}
</style>
<g>
	<path class="st0" d="M103.3,0.2c2.7-0.4,5.5-0.1,7.6,0.9l87.7,43.5c4.3,2,7.6,8.1,7.6,13.3L206,169.8c0,5.1-3.3,12.2-7.6,15.4
		l-87.9,68.1c-2.1,1.6-4.9,2.6-7.6,3s-5.5,0.1-7.6-0.9L7.6,211.8c-4.3-2-7.6-8.1-7.6-13.3L0.2,86.7c0-5.1,3.3-12.2,7.6-15.4
		L95.7,3.2C97.8,1.6,100.6,0.6,103.3,0.2z"/>
</g>
<g>
	<g>
		<path class="st1" d="M157.7,179.4l48.2-6.8c0,0.1-0.1,0.3-0.1,0.4c0,0.2-0.1,0.4-0.1,0.6l-48.2,6.8l-0.6,0.1
			C157.1,180.1,157.4,179.8,157.7,179.4z"/>
	</g>
	<g class="st2">
		<g>
			<polygon class="st1" points="156.8,180.5 157.4,180.4 178.7,200.4 178,201 156.8,181.2 			"/>
		</g>
		<g>
			<path class="st1" d="M155.9,218.2l0.1-36.6c0.3-0.4,0.6-0.7,0.9-1.1v0.7l-0.1,36.3l-0.6,0.4L155.9,218.2z"/>
		</g>
		<g>
			<path class="st1" d="M157,64.4l-0.2,114.7c-0.1,0.2-0.3,0.3-0.4,0.5l-0.5,0.1V179l0.2-114.2l0.6-0.7
				C156.8,64.2,156.9,64.3,157,64.4z"/>
		</g>
		<g>
			<path class="st1" d="M156.4,179.6c-0.3,0.4-0.6,0.7-0.9,1.1L49.2,195.6c-0.1-0.1-0.2-0.2-0.3-0.3l0.6-0.7l105.8-14.9l0.6-0.1
				H156.4z"/>
		</g>
		<g>
			<path class="st1" d="M156.7,64.1l-0.6,0.7l-53,64.5l-0.6,0.8l-53,64.5l-0.6,0.7c-0.2-0.2-0.4-0.4-0.6-0.6l0.6-0.7l53-64.5
				l0.6-0.8l53-64.5l0.6-0.7C156.3,63.7,156.5,63.9,156.7,64.1z"/>
		</g>
		<g>
			<path class="st1" d="M48.9,194l-0.6,0.7c-0.1-0.1-0.2-0.2-0.3-0.3l0.2-114.7c0.1-0.2,0.2-0.3,0.4-0.5l0.5-0.1v0.7L48.9,194z"/>
		</g>
	</g>
	<g>
		<polygon class="st1" points="155.9,179.7 155.3,179.7 102.5,130.1 103.1,129.3 155.9,179 		"/>
	</g>
	<g>
		<path class="st1" d="M156.1,63.5l-0.6,0.7L49.7,79.1l-0.6,0.1l-0.5,0.1c0.3-0.4,0.6-0.7,0.9-1.1l106.3-14.9
			C155.9,63.3,156,63.4,156.1,63.5z"/>
	</g>
	<g>
		<path class="st1" d="M47.3,79.4L0.6,86v-0.1c0-0.1,0-0.3,0-0.5c0-0.1,0-0.2,0-0.4l46.9-6.6l0.6-0.1C47.9,78.7,47.6,79,47.3,79.4z"
			/>
	</g>
	<g>
		<path class="st1" d="M48.9,196.6l-0.1,35.5l-0.7-0.3l-0.2-0.1l0.1-35.2l0.3-0.4C48.5,196.3,48.7,196.4,48.9,196.6z"/>
	</g>
	<g class="st2">
		<g>
			<path class="st1" d="M180.2,35.2l0.2,0.1l-22.7,27.6l-0.3,0.4c-0.2-0.2-0.4-0.4-0.6-0.6l0.3-0.4l22.5-27.4L180.2,35.2z"/>
		</g>
		<g>
			<path class="st1" d="M156.1,62.2l0.1-38.9l0.9,0.4L157,62.3l-0.3,0.4C156.5,62.5,156.3,62.4,156.1,62.2z"/>
		</g>
	</g>
	<g class="st2">
		<g>
			<path class="st1" d="M27.4,221.5l-0.8-0.4l20.7-25.2l0.3-0.4c0.2,0.2,0.4,0.4,0.6,0.6l-0.3,0.4L27.4,221.5z"/>
		</g>
		<g>
			<path class="st1" d="M47.3,195.9l-46.4,6.5c-0.1-0.2-0.1-0.4-0.2-0.7c0-0.1,0-0.2-0.1-0.3l46.4-6.5c0.2,0.2,0.4,0.4,0.6,0.5
				L47.3,195.9z"/>
		</g>
	</g>
	<g>
		<path class="st1" d="M206.4,56.9L206.4,56.9l-48.5,6.9c-0.2-0.2-0.4-0.4-0.6-0.5l0.3-0.4l48.7-6.8c0,0.1,0,0.2,0,0.3
			C206.4,56.6,206.4,56.7,206.4,56.9z"/>
	</g>
	<g class="st2">
		<g>
			<path class="st1" d="M157.3,63.3c0.2,0.2,0.4,0.4,0.6,0.5c13.4,13.1,21.6,32.3,21.6,54.7s-8.4,44-21.8,60.8
				c-0.3,0.4-0.6,0.7-0.9,1.1c-0.3,0.4-0.6,0.7-0.9,1.1c-13.9,16.4-32.8,28-53.6,31c-20.8,2.9-39.7-3.4-53.5-15.9
				c-0.2-0.2-0.4-0.3-0.6-0.5c-0.2-0.2-0.4-0.4-0.6-0.6c-0.2-0.2-0.4-0.4-0.6-0.5c-13.4-13.1-21.6-32.3-21.6-54.7s8.4-44,21.8-60.8
				c0.3-0.4,0.6-0.7,0.9-1.1c0.3-0.4,0.6-0.7,0.9-1.1c13.9-16.4,32.8-28,53.6-31c20.8-2.9,39.7,3.4,53.5,15.9
				c0.2,0.2,0.4,0.3,0.6,0.5C156.9,62.9,157.1,63.1,157.3,63.3z M156.8,179.1c13.4-16.7,21.7-38.1,21.8-60.4
				c0-22.3-8.2-41.4-21.6-54.3c-0.5-0.5-0.7-0.7-0.9-0.9c-14-12.8-32.8-19.1-53.4-16.2C82,50.2,63.2,61.7,49.5,78.1
				c-0.3,0.4-0.6,0.7-0.9,1.1c-0.1,0.2-0.2,0.3-0.4,0.5c-13.4,16.7-21.7,38.1-21.8,60.4c0,22.3,8.2,41.4,21.6,54.3
				c0.5,0.5,0.7,0.7,0.9,0.9c14,12.8,32.8,19.1,53.4,16.2c20.7-2.9,39.4-14.5,53.2-30.9c0.3-0.4,0.6-0.7,0.9-1.1
				C156.6,179.4,156.7,179.3,156.8,179.1"/>
		</g>
		<g>
			<polygon class="st1" points="102.5,128.7 101.9,129.5 49.1,79.8 49.1,79.1 49.7,79.1 			"/>
		</g>
		<g>
			<path class="st1" d="M48.2,77.6l0.1-37.4l0.9-0.7l-0.1,37.7c-0.3,0.4-0.6,0.7-0.9,1.1V77.6z"/>
		</g>
		<g>
			<polygon class="st1" points="47.6,78.4 25.6,57.8 26.4,57.1 48.2,77.6 48.2,78.3 			"/>
		</g>
	</g>
</g>
<g>
	<path class="st3" d="M133.3,30.2c2.7-0.4,5.5-0.1,7.6,0.9l87.7,43.5c4.3,2,7.6,8.2,7.6,13.3L236,199.8c0,5.1-3.3,12.2-7.6,15.4
		l-87.9,68.1c-2.1,1.6-4.9,2.6-7.6,3c-2.7,0.4-5.5,0.1-7.6-0.9l-87.7-43.5c-4.3-2-7.6-8.1-7.6-13.3l0.2-111.9
		c0-5.1,3.3-12.2,7.6-15.4l87.9-68.1C127.8,31.6,130.5,30.6,133.3,30.2z"/>
</g>
<g>
	<g>
		<path class="st4" d="M187.7,209.4l48.2-6.8c0,0.1-0.1,0.3-0.1,0.4c0,0.2-0.1,0.4-0.1,0.6l-48.2,6.8l-0.6,0.1
			C187.1,210.1,187.4,209.8,187.7,209.4z"/>
	</g>
	<g class="st2">
		<g>
			<polygon class="st4" points="186.8,210.5 187.4,210.4 208.7,230.4 208,231 186.8,211.2 			"/>
		</g>
		<g>
			<path class="st4" d="M185.9,248.2l0.1-36.6c0.3-0.4,0.6-0.7,0.9-1.1v0.7l-0.1,36.3l-0.6,0.4L185.9,248.2z"/>
		</g>
		<g>
			<path class="st4" d="M187,94.4l-0.2,114.7c-0.1,0.2-0.3,0.3-0.4,0.5l-0.5,0.1V209l0.2-114.2l0.6-0.7
				C186.8,94.2,186.9,94.3,187,94.4z"/>
		</g>
		<g>
			<path class="st4" d="M186.4,209.6c-0.3,0.4-0.6,0.7-0.9,1.1L79.2,225.6c-0.1-0.1-0.2-0.2-0.3-0.3l0.6-0.7l105.8-14.9l0.6-0.1
				H186.4z"/>
		</g>
		<g>
			<path class="st4" d="M186.7,94.1l-0.6,0.7l-53,64.5l-0.6,0.8l-53,64.5l-0.6,0.7c-0.2-0.2-0.4-0.4-0.6-0.6l0.6-0.7l53-64.5
				l0.6-0.8l53-64.5l0.6-0.7C186.3,93.7,186.5,93.9,186.7,94.1z"/>
		</g>
		<g>
			<path class="st4" d="M78.9,224l-0.6,0.7c-0.1-0.1-0.2-0.2-0.3-0.3l0.2-114.7c0.1-0.2,0.2-0.3,0.4-0.5l0.5-0.1v0.7L78.9,224z"/>
		</g>
	</g>
	<g>
		<polygon class="st4" points="185.9,209.7 185.3,209.7 132.5,160.1 133.1,159.3 185.9,209 		"/>
	</g>
	<g>
		<path class="st4" d="M186.1,93.5l-0.6,0.7L79.7,109.1l-0.6,0.1l-0.5,0.1c0.3-0.4,0.6-0.7,0.9-1.1l106.3-14.9
			C185.9,93.3,186,93.4,186.1,93.5z"/>
	</g>
	<g>
		<path class="st4" d="M77.3,109.4L30.6,116v-0.1c0-0.1,0-0.3,0-0.5c0-0.1,0-0.2,0-0.4l46.9-6.6l0.6-0.1
			C77.9,108.7,77.6,109,77.3,109.4z"/>
	</g>
	<g>
		<path class="st4" d="M78.9,226.6l-0.1,35.5l-0.7-0.3l-0.2-0.1l0.1-35.2l0.3-0.4C78.5,226.3,78.7,226.4,78.9,226.6z"/>
	</g>
	<g class="st2">
		<g>
			<path class="st4" d="M210.2,65.2l0.2,0.1l-22.7,27.6l-0.3,0.4c-0.2-0.2-0.4-0.4-0.6-0.6l0.3-0.4l22.5-27.4L210.2,65.2z"/>
		</g>
		<g>
			<path class="st4" d="M186.1,92.2l0.1-38.9l0.9,0.4L187,92.3l-0.3,0.4C186.5,92.5,186.3,92.4,186.1,92.2z"/>
		</g>
	</g>
	<g class="st2">
		<g>
			<path class="st4" d="M57.4,251.5l-0.8-0.4l20.7-25.2l0.3-0.4c0.2,0.2,0.4,0.4,0.6,0.6l-0.3,0.4L57.4,251.5z"/>
		</g>
		<g>
			<path class="st4" d="M77.3,225.9l-46.4,6.5c-0.1-0.2-0.1-0.4-0.2-0.7c0-0.1,0-0.2-0.1-0.3l46.4-6.5c0.2,0.2,0.4,0.4,0.6,0.5
				L77.3,225.9z"/>
		</g>
	</g>
	<g>
		<path class="st4" d="M236.4,86.9L236.4,86.9l-48.5,6.9c-0.2-0.2-0.4-0.4-0.6-0.5l0.3-0.4l48.7-6.8c0,0.1,0,0.2,0,0.3
			C236.4,86.6,236.4,86.7,236.4,86.9z"/>
	</g>
	<g class="st2">
		<g>
			<path class="st4" d="M187.3,93.3c0.2,0.2,0.4,0.4,0.6,0.5c13.4,13.1,21.6,32.3,21.6,54.7s-8.4,44-21.8,60.8
				c-0.3,0.4-0.6,0.7-0.9,1.1c-0.3,0.4-0.6,0.7-0.9,1.1c-13.9,16.4-32.8,28-53.6,31c-20.8,2.9-39.7-3.4-53.5-15.9
				c-0.2-0.2-0.4-0.3-0.6-0.5s-0.4-0.4-0.6-0.6c-0.2-0.2-0.4-0.4-0.6-0.5c-13.4-13.1-21.6-32.3-21.6-54.7s8.4-44,21.8-60.8
				c0.3-0.4,0.6-0.7,0.9-1.1s0.6-0.7,0.9-1.1c13.9-16.4,32.8-28,53.6-31c20.8-2.9,39.7,3.4,53.5,15.9c0.2,0.2,0.4,0.3,0.6,0.5
				C186.9,92.9,187.1,93.1,187.3,93.3z M186.8,209.1c13.4-16.7,21.7-38.1,21.8-60.4c0-22.3-8.2-41.4-21.6-54.3
				c-0.5-0.5-0.7-0.7-0.9-0.9c-14-12.8-32.8-19.1-53.4-16.2c-20.7,2.9-39.4,14.5-53.2,30.9c-0.3,0.4-0.6,0.7-0.9,1.1
				c-0.1,0.2-0.2,0.3-0.4,0.5c-13.4,16.7-21.7,38.1-21.8,60.4c0,22.3,8.2,41.4,21.6,54.3c0.5,0.5,0.7,0.7,0.9,0.9
				c14,12.8,32.8,19.1,53.4,16.2c20.7-2.9,39.4-14.5,53.2-30.9c0.3-0.4,0.6-0.7,0.9-1.1C186.6,209.4,186.7,209.3,186.8,209.1"/>
		</g>
		<g>
			<polygon class="st4" points="132.5,158.7 131.9,159.5 79.1,109.8 79.1,109.1 79.7,109.1 			"/>
		</g>
		<g>
			<path class="st4" d="M78.2,107.6l0.1-37.4l0.9-0.7l-0.1,37.7c-0.3,0.4-0.6,0.7-0.9,1.1V107.6z"/>
		</g>
		<g>
			<polygon class="st4" points="77.6,108.4 55.6,87.8 56.4,87.1 78.2,107.6 78.2,108.3 			"/>
		</g>
	</g>
</g>
<g>
	<path class="st5" d="M163.3,60.2c2.7-0.4,5.5-0.1,7.6,0.9l87.7,43.5c4.3,2,7.6,8.2,7.6,13.3L266,229.8c0,5.1-3.3,12.2-7.6,15.4
		l-87.9,68.1c-2.1,1.6-4.9,2.6-7.6,3c-2.7,0.4-5.5,0.1-7.6-0.9l-87.7-43.5c-4.3-2-7.6-8.2-7.6-13.3l0.2-111.9
		c0-5.1,3.3-12.2,7.6-15.4l87.9-68.1C157.8,61.6,160.6,60.6,163.3,60.2z"/>
</g>
<g>
	<g>
		<path class="st6" d="M217.7,239.4l48.2-6.8c0,0.1-0.1,0.3-0.1,0.4c0,0.2-0.1,0.4-0.1,0.6l-48.2,6.8l-0.6,0.1
			C217.1,240.1,217.4,239.8,217.7,239.4z"/>
	</g>
	<g class="st2">
		<g>
			<polygon class="st6" points="216.8,240.5 217.4,240.4 238.7,260.4 238,261 216.8,241.2 			"/>
		</g>
		<g>
			<path class="st6" d="M215.9,278.2l0.1-36.6c0.3-0.4,0.6-0.7,0.9-1.1v0.7l-0.1,36.3l-0.6,0.4L215.9,278.2z"/>
		</g>
		<g>
			<path class="st6" d="M217,124.4l-0.2,114.7c-0.1,0.2-0.3,0.3-0.4,0.5l-0.5,0.1V239l0.2-114.2l0.6-0.7
				C216.8,124.2,216.9,124.3,217,124.4z"/>
		</g>
		<g>
			<path class="st6" d="M216.4,239.6c-0.3,0.4-0.6,0.7-0.9,1.1l-106.3,14.9c-0.1-0.1-0.2-0.2-0.3-0.3l0.6-0.7l105.8-14.9l0.6-0.1
				H216.4z"/>
		</g>
		<g>
			<path class="st6" d="M216.7,124.1l-0.6,0.7l-53,64.5l-0.6,0.8l-53,64.5l-0.6,0.7c-0.2-0.2-0.4-0.4-0.6-0.6l0.6-0.7l53-64.5
				l0.6-0.8l53-64.5l0.6-0.7C216.3,123.7,216.5,123.9,216.7,124.1z"/>
		</g>
		<g>
			<path class="st6" d="M108.9,254l-0.6,0.7c-0.1-0.1-0.2-0.2-0.3-0.3l0.2-114.7c0.1-0.2,0.2-0.3,0.4-0.5l0.5-0.1v0.7L108.9,254z"/>
		</g>
	</g>
	<g>
		<polygon class="st6" points="215.9,239.7 215.3,239.7 162.5,190.1 163.1,189.3 215.9,239 		"/>
	</g>
	<g>
		<path class="st6" d="M216.1,123.5l-0.6,0.7l-105.8,14.9l-0.6,0.1l-0.5,0.1c0.3-0.4,0.6-0.7,0.9-1.1l106.3-14.9
			C215.9,123.3,216,123.4,216.1,123.5z"/>
	</g>
	<g>
		<path class="st6" d="M107.3,139.4L60.6,146v-0.1c0-0.1,0-0.3,0-0.5c0-0.1,0-0.2,0-0.4l46.9-6.6l0.6-0.1
			C107.9,138.7,107.6,139,107.3,139.4z"/>
	</g>
	<g>
		<path class="st6" d="M108.9,256.6l-0.1,35.5l-0.7-0.3l-0.2-0.1l0.1-35.2l0.3-0.4C108.5,256.3,108.7,256.4,108.9,256.6z"/>
	</g>
	<g class="st2">
		<g>
			<path class="st6" d="M240.2,95.2l0.2,0.1l-22.7,27.6l-0.3,0.4c-0.2-0.2-0.4-0.4-0.6-0.6l0.3-0.4l22.5-27.4L240.2,95.2z"/>
		</g>
		<g>
			<path class="st6" d="M216.1,122.2l0.1-38.9l0.9,0.4l-0.1,38.6l-0.3,0.4C216.5,122.5,216.3,122.4,216.1,122.2z"/>
		</g>
	</g>
	<g class="st2">
		<g>
			<path class="st6" d="M87.4,281.5l-0.8-0.4l20.7-25.2l0.3-0.4c0.2,0.2,0.4,0.4,0.6,0.6l-0.3,0.4L87.4,281.5z"/>
		</g>
		<g>
			<path class="st6" d="M107.3,255.9l-46.4,6.5c-0.1-0.2-0.1-0.4-0.2-0.7c0-0.1,0-0.2-0.1-0.3l46.4-6.5c0.2,0.2,0.4,0.4,0.6,0.5
				L107.3,255.9z"/>
		</g>
	</g>
	<g>
		<path class="st6" d="M266.4,116.9L266.4,116.9l-48.5,6.9c-0.2-0.2-0.4-0.4-0.6-0.5l0.3-0.4l48.7-6.8c0,0.1,0,0.2,0,0.3
			C266.4,116.6,266.4,116.7,266.4,116.9z"/>
	</g>
	<g class="st2">
		<g>
			<path class="st6" d="M217.3,123.3c0.2,0.2,0.4,0.4,0.6,0.5c13.4,13.1,21.6,32.3,21.6,54.7s-8.4,44-21.8,60.8
				c-0.3,0.4-0.6,0.7-0.9,1.1c-0.3,0.4-0.6,0.7-0.9,1.1c-13.9,16.4-32.8,28-53.6,31c-20.8,2.9-39.7-3.4-53.5-15.9
				c-0.2-0.2-0.4-0.3-0.6-0.5c-0.2-0.2-0.4-0.4-0.6-0.6c-0.2-0.2-0.4-0.4-0.6-0.5c-13.4-13.1-21.6-32.3-21.6-54.7s8.4-44,21.8-60.8
				c0.3-0.4,0.6-0.7,0.9-1.1c0.3-0.4,0.6-0.7,0.9-1.1c13.9-16.4,32.8-28,53.6-31c20.8-2.9,39.7,3.4,53.5,15.9
				c0.2,0.2,0.4,0.3,0.6,0.5C216.9,122.9,217.1,123.1,217.3,123.3z M216.8,239.1c13.4-16.7,21.7-38.1,21.8-60.4
				c0-22.3-8.2-41.4-21.6-54.3c-0.5-0.5-0.7-0.7-0.9-0.9c-14-12.8-32.8-19.1-53.4-16.2c-20.7,2.9-39.4,14.5-53.2,30.9
				c-0.3,0.4-0.6,0.7-0.9,1.1c-0.1,0.2-0.2,0.3-0.4,0.5c-13.4,16.7-21.7,38.1-21.8,60.4c0,22.3,8.2,41.4,21.6,54.3
				c0.5,0.5,0.7,0.7,0.9,0.9c14,12.8,32.8,19.1,53.4,16.2c20.7-2.9,39.4-14.5,53.2-30.9c0.3-0.4,0.6-0.7,0.9-1.1
				C216.6,239.4,216.7,239.3,216.8,239.1"/>
		</g>
		<g>
			<polygon class="st6" points="162.5,188.7 161.9,189.5 109.1,139.8 109.1,139.1 109.7,139.1 			"/>
		</g>
		<g>
			<path class="st6" d="M108.2,137.6l0.1-37.4l0.9-0.7l-0.1,37.7c-0.3,0.4-0.6,0.7-0.9,1.1V137.6z"/>
		</g>
		<g>
			<polygon class="st6" points="107.6,138.4 85.6,117.8 86.4,117.1 108.2,137.6 108.2,138.3 			"/>
		</g>
	</g>
</g>
<g>
	<path class="st7" d="M203.3,100.2c2.7-0.4,5.5-0.1,7.6,0.9l87.7,43.5c4.3,2,7.6,8.1,7.6,13.3L306,269.8c0,5.1-3.3,12.2-7.6,15.4
		l-87.9,68.1c-2.1,1.6-4.9,2.6-7.6,3c-2.7,0.4-5.5,0.1-7.6-0.9l-87.7-43.5c-4.3-2-7.6-8.1-7.6-13.3l0.2-111.9
		c0-5.1,3.3-12.2,7.6-15.4l87.9-68.1C197.8,101.6,200.6,100.6,203.3,100.2z"/>
</g>
<g>
	<g>
		<path class="st8" d="M257.7,279.4l48.2-6.8c0,0.1-0.1,0.3-0.1,0.4c0,0.2-0.1,0.4-0.1,0.6l-48.2,6.8l-0.6,0.1
			C257.1,280.1,257.4,279.8,257.7,279.4z"/>
	</g>
	<g class="st2">
		<g>
			<polygon class="st8" points="256.8,280.5 257.4,280.4 278.7,300.4 278,301 256.8,281.2 			"/>
		</g>
		<g>
			<path class="st8" d="M255.9,318.2l0.1-36.6c0.3-0.4,0.6-0.7,0.9-1.1v0.7l-0.1,36.3l-0.6,0.4L255.9,318.2z"/>
		</g>
		<g>
			<path class="st8" d="M257,164.4l-0.2,114.7c-0.1,0.2-0.3,0.3-0.4,0.5l-0.5,0.1V279l0.2-114.2l0.6-0.7
				C256.8,164.2,256.9,164.3,257,164.4z"/>
		</g>
		<g>
			<path class="st8" d="M256.4,279.6c-0.3,0.4-0.6,0.7-0.9,1.1l-106.3,14.9c-0.1-0.1-0.2-0.2-0.3-0.3l0.6-0.7l105.8-14.9l0.6-0.1
				H256.4z"/>
		</g>
		<g>
			<path class="st8" d="M256.7,164.1l-0.6,0.7l-53,64.5l-0.6,0.8l-53,64.5l-0.6,0.7c-0.2-0.2-0.4-0.4-0.6-0.6l0.6-0.7l53-64.5
				l0.6-0.8l53-64.5l0.6-0.7C256.3,163.7,256.5,163.9,256.7,164.1z"/>
		</g>
		<g>
			<path class="st8" d="M148.9,294l-0.6,0.7c-0.1-0.1-0.2-0.2-0.3-0.3l0.2-114.7c0.1-0.2,0.2-0.3,0.4-0.5l0.5-0.1v0.7L148.9,294z"/>
		</g>
	</g>
	<g>
		<polygon class="st8" points="255.9,279.7 255.3,279.7 202.5,230.1 203.1,229.3 255.9,279 		"/>
	</g>
	<g>
		<path class="st8" d="M256.1,163.5l-0.6,0.7l-105.8,14.9l-0.6,0.1l-0.5,0.1c0.3-0.4,0.6-0.7,0.9-1.1l106.3-14.9
			C255.9,163.3,256,163.4,256.1,163.5z"/>
	</g>
	<g>
		<path class="st8" d="M147.3,179.4l-46.7,6.6v-0.1c0-0.1,0-0.3,0-0.5c0-0.1,0-0.2,0-0.4l46.9-6.6l0.6-0.1
			C147.9,178.7,147.6,179,147.3,179.4z"/>
	</g>
	<g>
		<path class="st8" d="M148.9,296.6l-0.1,35.5l-0.7-0.3l-0.2-0.1l0.1-35.2l0.3-0.4C148.5,296.3,148.7,296.4,148.9,296.6z"/>
	</g>
	<g class="st2">
		<g>
			<path class="st8" d="M280.2,135.2l0.2,0.1l-22.7,27.6l-0.3,0.4c-0.2-0.2-0.4-0.4-0.6-0.6l0.3-0.4l22.5-27.4L280.2,135.2z"/>
		</g>
		<g>
			<path class="st8" d="M256.1,162.2l0.1-38.9l0.9,0.4l-0.1,38.6l-0.3,0.4C256.5,162.5,256.3,162.4,256.1,162.2z"/>
		</g>
	</g>
	<g class="st2">
		<g>
			<path class="st8" d="M127.4,321.5l-0.8-0.4l20.7-25.2l0.3-0.4c0.2,0.2,0.4,0.4,0.6,0.6l-0.3,0.4L127.4,321.5z"/>
		</g>
		<g>
			<path class="st8" d="M147.3,295.9l-46.4,6.5c-0.1-0.2-0.1-0.4-0.2-0.7c0-0.1,0-0.2-0.1-0.3l46.4-6.5c0.2,0.2,0.4,0.4,0.6,0.5
				L147.3,295.9z"/>
		</g>
	</g>
	<g>
		<path class="st8" d="M306.4,156.9v0.1l-48.5,6.8c-0.2-0.2-0.4-0.4-0.6-0.5l0.3-0.4l48.7-6.8c0,0.1,0,0.2,0,0.3
			C306.4,156.6,306.4,156.7,306.4,156.9z"/>
	</g>
	<g class="st2">
		<g>
			<path class="st8" d="M257.3,163.3c0.2,0.2,0.4,0.4,0.6,0.5c13.4,13.1,21.6,32.3,21.6,54.7s-8.4,44-21.8,60.8
				c-0.3,0.4-0.6,0.7-0.9,1.1s-0.6,0.7-0.9,1.1c-13.9,16.4-32.8,28-53.6,31c-20.8,2.9-39.7-3.4-53.5-15.9c-0.2-0.2-0.4-0.3-0.6-0.5
				c-0.2-0.2-0.4-0.4-0.6-0.6c-0.2-0.2-0.4-0.4-0.6-0.5c-13.4-13.1-21.6-32.3-21.6-54.7s8.4-44,21.8-60.8c0.3-0.4,0.6-0.7,0.9-1.1
				c0.3-0.4,0.6-0.7,0.9-1.1c13.9-16.4,32.8-28,53.6-31c20.8-2.9,39.7,3.4,53.5,15.9c0.2,0.2,0.4,0.3,0.6,0.5
				C256.9,162.9,257.1,163.1,257.3,163.3z M256.8,279.1c13.4-16.7,21.7-38.1,21.8-60.4c0-22.3-8.2-41.4-21.6-54.3
				c-0.5-0.5-0.7-0.7-0.9-0.9c-14-12.8-32.8-19.1-53.4-16.2c-20.7,2.9-39.4,14.5-53.2,30.9c-0.3,0.4-0.6,0.7-0.9,1.1
				c-0.1,0.2-0.2,0.3-0.4,0.5c-13.4,16.7-21.7,38.1-21.8,60.4c0,22.3,8.2,41.4,21.6,54.3c0.5,0.5,0.7,0.7,0.9,0.9
				c14,12.8,32.8,19.1,53.4,16.2c20.7-2.9,39.4-14.5,53.2-30.9c0.3-0.4,0.6-0.7,0.9-1.1C256.6,279.4,256.7,279.3,256.8,279.1"/>
		</g>
		<g>
			<polygon class="st8" points="202.5,228.7 201.9,229.5 149.1,179.8 149.1,179.1 149.7,179.1 			"/>
		</g>
		<g>
			<path class="st8" d="M148.2,177.6l0.1-37.4l0.9-0.7l-0.1,37.7c-0.3,0.4-0.6,0.7-0.9,1.1V177.6z"/>
		</g>
		<g>
			<polygon class="st8" points="147.6,178.4 125.6,157.8 126.4,157.1 148.2,177.6 148.2,178.3 			"/>
		</g>
	</g>
</g>
<g>
	<path class="st8" d="M93.9,138.8c0.8,0.1,1.5-0.1,2-0.5c0.6-0.4,0.8-0.9,0.2-1.7l-4.4-5.6l1.7-1.3l4.5,5.8c1.2,1.5,0.8,3-0.7,4.2
		c-0.8,0.6-1.5,0.8-2.1,0.8L93.9,138.8z"/>
	<path class="st8" d="M100.9,123.9l6.2,4.9l-3.3-7.2l1.7-1.3l4.2,9.5l-2.1,1.6l-5.8-4.6l3,6.7l-2.1,1.6l-8.2-6.5l1.7-1.3l6.1,5
		l-3.2-7.2L100.9,123.9z"/>
	<path class="st8" d="M117.3,123.9l-1.7,1.3l-6.2-7.9c0.5-0.6,1.4-1.4,2.2-2c2-1.6,4-1.6,5.5,0.3c1.5,2,0.7,4-1.1,5.3
		c-0.2,0.2-0.5,0.4-0.7,0.5L117.3,123.9z M114.3,120c0.1-0.1,0.4-0.2,0.6-0.4c1-0.8,1.3-1.7,0.6-2.6c-0.7-0.9-1.7-0.8-2.7-0.1
		c-0.2,0.1-0.4,0.3-0.5,0.5L114.3,120z"/>
	<path class="st8" d="M116.4,111.9l1.7-1.3l5,6.5l3.1-2.4l1.2,1.5l-4.8,3.7L116.4,111.9z"/>
	<path class="st8" d="M129.2,112l0.7,2.2l-1.8,1.4l-3.1-10.4l2.1-1.6l9.3,5.6l-1.9,1.4l-1.9-1.2L129.2,112z M127.3,106.1l1.3,4.2
		l2.4-1.8L127.3,106.1z"/>
	<path class="st8" d="M135.1,97.3l1.9-1.5l1,7.2l2.3,3l-1.7,1.3l-2.3-3l-6.7-2.8l1.9-1.4l4.5,2L135.1,97.3z"/>
	<path class="st8" d="M148.3,97.5l1.2,1.5l-5.2,4l-6.2-8l5.1-3.9l1.2,1.5l-3.4,2.6l1.4,1.7l3.1-2.4l1.1,1.5l-3.1,2.4l1.4,1.8
		L148.3,97.5z"/>
	<path class="st8" d="M152.8,96.4l-1.7,1.3l-6.2-8c0.5-0.5,1.4-1.3,2.1-1.9c2.1-1.6,4-1.7,5.4,0.1c0.9,1.2,0.9,2.5,0.3,3.5l4.6,1.3
		l-2,1.6l-4-1.2l-0.7,0.6L152.8,96.4z M149.6,92.4l0.6-0.4c1-0.7,1.3-1.6,0.6-2.5s-1.6-0.8-2.6,0c-0.2,0.1-0.4,0.4-0.6,0.5
		L149.6,92.4z"/>
	<path class="st8" d="M89.5,161.2c0.8,0.1,1.5-0.1,2-0.5c0.6-0.4,0.8-0.9,0.2-1.7l-4.4-5.6l1.7-1.3l4.5,5.8c1.2,1.5,0.8,3-0.7,4.2
		c-0.8,0.6-1.5,0.8-2.1,0.8L89.5,161.2z"/>
	<path class="st8" d="M97.1,155.9l0.7,2.2l-1.8,1.4L92.9,149l2.1-1.6l9.3,5.6l-1.9,1.4l-1.9-1.2L97.1,155.9z M95.2,149.9l1.3,4.2
		l2.4-1.8L95.2,149.9z"/>
	<path class="st8" d="M106.7,151.1l-9.2-5.7l1.8-1.4l7.1,4.5l-2.7-8l1.8-1.4l3.2,10.3L106.7,151.1z"/>
	<path class="st8" d="M112.4,144l0.7,2.2l-1.8,1.4l-3.1-10.4l2.1-1.6l9.3,5.6l-1.9,1.4l-1.9-1.2L112.4,144z M110.5,138.1l1.3,4.2
		l2.4-1.8L110.5,138.1z"/>
	<path class="st8" d="M118.6,138.5c1,0,1.9-0.2,2.8-0.9c0.7-0.5,1.1-1.2,0.6-1.9c-0.5-0.6-1.1-0.4-2.2,0c-1.9,0.8-3.1,0.6-4.2-0.7
		c-1.2-1.5-0.7-3.3,0.8-4.4c0.9-0.7,1.7-1,2.6-1.1l1.3,1.7c-1,0-1.9,0.2-2.7,0.8c-0.7,0.5-0.8,1.2-0.4,1.7c0.4,0.6,1.1,0.4,2.2,0
		c2-0.8,3.1-0.5,4.2,0.8c1.3,1.7,0.5,3.4-1.1,4.7c-0.9,0.7-1.8,1-2.6,1.1L118.6,138.5z"/>
	<path class="st8" d="M128.2,125.2c-0.9-0.1-1.9,0.1-2.8,0.9c-1.4,1.1-1.6,2.9-0.4,4.4c1.2,1.6,3,1.8,4.5,0.7
		c0.9-0.7,1.4-1.5,1.6-2.6l1.4,1.8c-0.4,1-1,1.8-1.9,2.4c-2.5,1.9-5.4,1.5-7.3-0.9s-1.5-5.4,0.9-7.3c0.8-0.6,1.7-1,2.6-1.1
		L128.2,125.2z"/>
	<path class="st8" d="M136.1,128.4l-1.7,1.3l-6.2-8c0.5-0.5,1.4-1.3,2.1-1.9c2.1-1.6,4-1.7,5.4,0.1c0.9,1.2,0.9,2.5,0.3,3.5l4.6,1.3
		l-2,1.6l-4-1.2l-0.7,0.6L136.1,128.4z M132.9,124.3l0.6-0.4c1-0.8,1.3-1.6,0.6-2.5s-1.6-0.8-2.6,0c-0.2,0.1-0.4,0.4-0.6,0.5
		L132.9,124.3z"/>
	<path class="st8" d="M143.5,122.6l-1.7,1.3l-6.2-8l1.7-1.3L143.5,122.6z"/>
	<path class="st8" d="M147.1,119.8l-1.7,1.3l-6.2-7.9c0.5-0.6,1.4-1.4,2.2-2c2-1.6,4-1.6,5.5,0.3c1.5,2,0.7,4-1.1,5.3
		c-0.2,0.2-0.5,0.4-0.7,0.5L147.1,119.8z M144.1,115.9c0.1-0.1,0.4-0.2,0.6-0.4c1-0.8,1.3-1.7,0.6-2.6s-1.7-0.8-2.7-0.1
		c-0.2,0.1-0.4,0.3-0.5,0.5L144.1,115.9z"/>
	<path class="st8" d="M155.8,113.1l-1.7,1.3l-5-6.5l-2.5,1.9l-1.2-1.5l6.6-5.1l1.2,1.5l-2.5,1.9L155.8,113.1z"/>
	<path class="st8" d="M162.4,105.2l0.7,2.2l-1.8,1.4l-3.1-10.4l2.1-1.6l9.3,5.6l-1.9,1.4l-1.9-1.2L162.4,105.2z M160.5,99.3l1.3,4.2
		l2.4-1.8L160.5,99.3z"/>
	<path class="st8" d="M172.4,100.2l-1.7,1.3l-6.2-7.9c0.5-0.6,1.4-1.4,2.2-2c2-1.6,4-1.6,5.5,0.3c1.5,2,0.7,4-1.1,5.3
		c-0.2,0.2-0.5,0.4-0.7,0.5L172.4,100.2z M169.3,96.3c0.1-0.1,0.4-0.2,0.6-0.4c1-0.8,1.3-1.7,0.6-2.6s-1.7-0.8-2.7-0.1
		c-0.2,0.1-0.4,0.3-0.5,0.5L169.3,96.3z"/>
	<path class="st8" d="M179.3,94.9l-1.7,1.3l-6.2-8l1.7-1.3L179.3,94.9z"/>
</g>
<g>
	<path class="st8" d="M68.3,108l0.7,2l-1.7,1.3l-2.9-9.8l1.9-1.5l8.8,5.2l-1.7,1.4l-1.8-1.1L68.3,108z M66.5,102.4l1.3,3.9l2.2-1.7
		L66.5,102.4z"/>
	<path class="st8" d="M77.4,103.5l-8.7-5.3l1.7-1.3l6.7,4.3l-2.5-7.5l1.7-1.3l3,9.7L77.4,103.5z"/>
	<path class="st8" d="M87.3,95.9l-1.6,1.2l-5.8-7.5c0.5-0.5,1.3-1.3,2-1.8c1.9-1.5,3.8-1.5,5.2,0.2c1.5,1.9,0.6,3.7-1,5
		c-0.2,0.2-0.5,0.4-0.6,0.5L87.3,95.9z M84.4,92.1c0.1-0.1,0.3-0.2,0.5-0.4c1-0.8,1.2-1.6,0.6-2.5c-0.7-0.8-1.6-0.8-2.5-0.1
		c-0.2,0.1-0.4,0.3-0.5,0.5L84.4,92.1z"/>
	<path class="st8" d="M86.4,84.5l1.6-1.2l4.7,6.1l2.9-2.3l1.1,1.4L92.2,92L86.4,84.5z"/>
	<path class="st8" d="M98.5,84.6l0.7,2L97.4,88l-2.9-9.8l1.9-1.5l8.8,5.2l-1.7,1.4l-1.8-1.1L98.5,84.6z M96.7,79l1.3,3.9l2.2-1.7
		L96.7,79z"/>
	<path class="st8" d="M104,70.8l1.8-1.4l0.9,6.8l2.2,2.8l-1.6,1.2l-2.2-2.8l-6.4-2.6l1.8-1.4l4.2,1.8L104,70.8z"/>
	<path class="st8" d="M116.4,71l1.1,1.4l-4.9,3.8l-5.8-7.5l4.8-3.7l1.1,1.4l-3.2,2.5l1.3,1.6l2.9-2.3l1.1,1.4l-2.9,2.3l1.3,1.7
		L116.4,71z"/>
	<path class="st8" d="M120.6,70l-1.6,1.2l-5.8-7.5c0.5-0.5,1.3-1.3,2-1.8c1.9-1.5,3.8-1.6,5.1,0.1c0.8,1.1,0.8,2.3,0.3,3.3l4.4,1.2
		l-1.9,1.5l-3.8-1.1l-0.7,0.5L120.6,70z M117.7,66.1l0.5-0.4c0.9-0.7,1.2-1.5,0.6-2.4c-0.6-0.8-1.5-0.7-2.4,0
		c-0.2,0.1-0.4,0.3-0.5,0.4L117.7,66.1z"/>
</g>
<g>
	<path class="st8" d="M43.1,70.8l-3.4-4.4l1.4-1l5.1,6.6l-1.3,1l-6.4-2l3.4,4.4l-1.4,1l-5.1-6.6l1.4-1.1L43.1,70.8z"/>
	<path class="st8" d="M48,68.3l0.6,1.8l-1.5,1.1l-2.5-8.6l1.7-1.3l7.6,4.6l-1.5,1.2l-1.6-1L48,68.3z M46.4,63.4l1.1,3.4l2-1.5
		L46.4,63.4z"/>
	<path class="st8" d="M57,63.6l-1.4,1.1l-4.1-5.4l-2,1.6l-0.9-1.2l5.5-4.2l0.9,1.2l-2,1.6L57,63.6z"/>
	<path class="st8" d="M61.5,60.2l-1.5,1l-5-6.5l1.4-1.1L61.5,60.2z"/>
	<path class="st8" d="M64.8,57.6l-7.5-4.7l1.5-1.2l5.8,3.8l-2.2-6.6l1.5-1.2l2.6,8.5L64.8,57.6z"/>
	<path class="st8" d="M73.2,49.2l0.9,1.2l-4.3,3.3l-5.1-6.6l4.2-3.2l0.9,1.2L67,47.3l1.1,1.4l2.6-2l0.9,1.2l-2.6,2l1.1,1.5
		L73.2,49.2z"/>
	<path class="st8" d="M75.7,38.6c1.9-1.5,4.5-1.2,6.1,0.8c1.5,2,1.1,4.6-0.8,6s-4.5,1.2-6.1-0.8C73.3,42.6,73.7,40,75.7,38.6z
		 M76.6,39.8c-1.1,0.9-1.3,2.4-0.3,3.7s2.5,1.5,3.6,0.6s1.3-2.4,0.3-3.7C79.3,39.2,77.8,39,76.6,39.8z"/>
	<path class="st8" d="M83.8,40.2c0.8,0,1.6-0.1,2.3-0.7c0.6-0.4,0.9-1,0.5-1.6c-0.4-0.5-0.9-0.4-1.8,0c-1.6,0.6-2.6,0.5-3.4-0.6
		c-1-1.3-0.5-2.7,0.7-3.6c0.7-0.6,1.4-0.8,2.1-0.9l1.1,1.4c-0.8,0-1.6,0.1-2.2,0.6c-0.6,0.4-0.7,1-0.3,1.4c0.4,0.5,0.9,0.4,1.8,0
		c1.6-0.6,2.6-0.4,3.4,0.7c1.1,1.4,0.4,2.8-0.9,3.9c-0.7,0.6-1.5,0.9-2.2,0.9L83.8,40.2z"/>
</g>
<g>
	<g>
		<g>
			<path class="st9" d="M166.3,249.6v8.8c0,2.3-1.4,3.6-3.4,3.9c-1,0.1-1.8,0-2.4-0.4v-2.5c0.6,0.5,1.4,0.8,2.1,0.7
				c0.8-0.1,1.3-0.5,1.3-1.6V250L166.3,249.6z"/>
		</g>
		<g>
			<polygon class="st9" points="183,247.2 180.3,259.6 177.3,260 175.4,251.8 173.5,260.5 170.6,260.9 167.9,249.3 170.2,249 
				172.2,257.9 174.2,248.4 176.7,248.1 178.7,256.9 180.7,247.5 			"/>
		</g>
		<g>
			<path class="st9" d="M191.7,245.8c2.8-0.4,4.6,0.8,4.6,3.6c0,3-2.1,4.5-4.5,4.9c-0.3,0-0.7,0.1-0.9,0.1v3.8l-2.4,0.3v-11.9
				C189.3,246.2,190.6,245.9,191.7,245.8z M191.7,252.1c1.4-0.2,2.3-1,2.3-2.4c0-1.3-0.9-1.9-2.3-1.7c-0.2,0-0.6,0.1-0.8,0.2v3.9
				C191,252.2,191.4,252.1,191.7,252.1"/>
		</g>
		<g>
			<polygon class="st9" points="200.5,244.7 200.5,254.5 204.9,253.9 204.9,256.1 198.1,257.1 198.2,245.1 			"/>
		</g>
		<g>
			<polygon class="st9" points="226.9,241 222.9,249.1 222.9,253.6 220.5,253.9 220.5,249.5 216.5,242.5 219.1,242.1 221.7,246.9 
				224.3,241.4 			"/>
		</g>
		<g>
			<path class="st9" d="M213,243l4.3,11.4l-2.6,0.4l-0.9-2.4l-4.7,0.7l-0.9,2.7l-2.5,0.4l4.3-12.6L213,243z M209.9,250.8l3.3-0.5
				l-1.6-4.7L209.9,250.8"/>
		</g>
		<g>
			<polygon class="st9" points="235.4,239.8 235.4,242.1 230.7,242.7 230.7,245.4 235,244.8 235,247 230.7,247.6 230.7,250.3 
				235.5,249.6 235.5,251.8 228.3,252.8 228.4,240.8 			"/>
		</g>
		<g>
			<path class="st9" d="M243.5,246.1l3.1,4.2l-2.8,0.4l-2.6-3.7l-1,0.1v4l-2.4,0.3v-11.9c0.8-0.3,2.1-0.5,3.2-0.7
				c2.9-0.4,4.6,0.7,4.6,3.4C245.6,244,244.7,245.3,243.5,246.1z M241,244.9c1.3-0.2,2.2-0.9,2.2-2.2s-0.9-1.8-2.2-1.6
				c-0.2,0-0.6,0.1-0.8,0.2v3.8L241,244.9"/>
		</g>
		<g>
			<path class="st9" d="M151.8,270.6c3.2-0.5,5.8,1.7,5.8,5.4c0,3.6-2.6,6.5-5.8,7s-5.8-1.7-5.8-5.4S148.6,271,151.8,270.6z
				 M151.8,280.7c1.9-0.3,3.4-2,3.4-4.4s-1.4-3.7-3.3-3.4c-1.9,0.3-3.3,2-3.3,4.4C148.5,279.6,149.9,280.9,151.8,280.7"/>
		</g>
		<g>
			<path class="st9" d="M165.1,274.7c1.5,0,2.6,0.8,2.6,2.5c0,2.2-1.5,3.7-5.1,4.2c-1,0.1-2.1,0.2-2.8,0.2v-11.8
				c0.8-0.3,2.2-0.6,3.1-0.7c2.6-0.4,4.3,0.3,4.3,2.8C167.1,273.2,166.2,274.4,165.1,274.7z M162.9,279.3c1.4-0.2,2.3-0.8,2.3-1.9
				s-0.8-1.4-2-1.2l-1.2,0.2v3C162.3,279.4,162.7,279.3,162.9,279.3 M162,271.4v2.9l0.9-0.1c1.3-0.2,2-0.8,2-1.8s-0.7-1.3-1.8-1.2
				C162.7,271.2,162.3,271.3,162,271.4"/>
		</g>
		<g>
			<path class="st9" d="M174.7,267.6v8.8c0,2.3-1.4,3.6-3.4,3.9c-1,0.1-1.8,0-2.4-0.4v-2.5c0.6,0.5,1.4,0.8,2.1,0.7
				c0.8-0.1,1.3-0.5,1.3-1.6V268L174.7,267.6z"/>
		</g>
		<g>
			<polygon class="st9" points="181.7,271.5 181.7,273.7 176.7,274.4 176.7,272.2 			"/>
		</g>
		<g>
			<path class="st9" d="M189.4,265.3c1.1-0.2,2.1-0.1,3,0.4v2.7c-0.7-0.7-1.8-1-3-0.8c-2,0.3-3.3,2.1-3.3,4.4c0,2.4,1.4,3.7,3.4,3.4
				c1.3-0.2,2.2-0.7,3.1-1.7v2.6c-1,0.8-2.1,1.2-3.2,1.3c-3.5,0.5-5.7-1.7-5.7-5.4C183.7,268.6,186,265.8,189.4,265.3z"/>
		</g>
		<g>
			<polygon class="st9" points="205.3,261.5 199.8,278 197.5,278.4 203,261.9 			"/>
		</g>
		<g>
			<path class="st9" d="M213.8,261.9c1.3-0.2,2.2,0,3,0.5v2.5c-0.9-0.6-1.8-1-2.9-0.8c-1,0.1-1.5,0.7-1.5,1.5s0.6,1.1,1.9,1.3
				c2.2,0.4,3.1,1.3,3.1,3.3c0,2.5-1.8,3.9-4.1,4.2c-1.2,0.2-2.3,0-3-0.4v-2.5c0.8,0.6,1.8,1,3,0.8c1-0.1,1.8-0.6,1.8-1.6
				c0-0.9-0.7-1.1-1.8-1.4c-2.2-0.3-3.1-1.2-3.1-3.2C210.1,263.7,211.7,262.2,213.8,261.9z"/>
		</g>
		<g>
			<polygon class="st9" points="233.4,259.3 230.7,271.7 227.7,272.1 225.8,263.9 223.9,272.6 221,273.1 218.3,261.5 220.7,261.1 
				222.6,270 224.7,260.6 227.1,260.2 229.2,269.1 231.1,259.7 			"/>
		</g>
		<g>
			<polygon class="st9" points="237.6,258.7 237.6,270.7 235.2,271.1 235.2,259.1 			"/>
		</g>
		<g>
			<polygon class="st9" points="246.7,257.5 246.7,259.7 242.6,260.3 242.6,263.3 246.3,262.8 246.3,265 242.6,265.5 242.6,270 
				240.3,270.4 240.3,258.4 			"/>
		</g>
		<g>
			<polygon class="st9" points="257.3,256 257.3,258.2 253.9,258.7 253.9,268.4 251.5,268.8 251.6,259 248.1,259.5 248.2,257.3 			
				"/>
		</g>
		<g>
			<polygon class="st9" points="180.4,286 177.6,298.4 174.7,298.8 172.8,290.6 170.8,299.3 167.9,299.7 165.2,288.1 167.6,287.8 
				169.5,296.6 171.6,287.2 174,286.9 176.1,295.7 178.1,286.3 			"/>
		</g>
		<g>
			<path class="st9" d="M187.8,292.3l3.2,4.2l-2.8,0.4l-2.6-3.7l-1,0.1v4l-2.4,0.3v-11.9c0.8-0.2,2.1-0.5,3.2-0.7
				c2.9-0.4,4.6,0.7,4.6,3.4C189.9,290.2,189,291.6,187.8,292.3z M185.3,291.2c1.3-0.2,2.2-0.9,2.2-2.2c0-1.3-0.9-1.8-2.2-1.6
				c-0.2,0-0.6,0.1-0.8,0.1v3.8L185.3,291.2"/>
		</g>
		<g>
			<path class="st9" d="M198.3,283.5l4.3,11.4l-2.6,0.4l-0.9-2.4l-4.7,0.7l-0.9,2.7l-2.5,0.3l4.3-12.6L198.3,283.5z M195.2,291.3
				l3.3-0.5l-1.6-4.6L195.2,291.3"/>
		</g>
		<g>
			<path class="st9" d="M207.4,282c2.8-0.4,4.6,0.8,4.6,3.6c0,3-2.1,4.5-4.5,4.9c-0.3,0-0.7,0.1-0.9,0.1v3.8l-2.4,0.3v-11.9
				C205,282.5,206.3,282.2,207.4,282z M207.3,288.3c1.4-0.2,2.3-0.9,2.3-2.4c0-1.3-0.9-1.9-2.3-1.7c-0.2,0-0.6,0.1-0.8,0.2v3.9
				C206.7,288.4,207,288.3,207.3,288.3"/>
		</g>
		<g>
			<path class="st9" d="M217,280.6c2.8-0.4,4.6,0.8,4.6,3.6c0,3-2.1,4.5-4.5,4.9c-0.3,0-0.7,0.1-0.9,0.1v3.8l-2.4,0.3v-11.9
				C214.6,281.1,215.9,280.8,217,280.6z M217,286.9c1.4-0.2,2.3-0.9,2.3-2.4c0-1.3-0.9-1.9-2.3-1.7c-0.2,0-0.6,0.1-0.8,0.2v3.9
				C216.3,287,216.7,287,217,286.9"/>
		</g>
		<g>
			<polygon class="st9" points="230.5,279 230.5,281.2 225.8,281.9 225.8,284.5 230.1,283.9 230.1,286.1 225.8,286.7 225.8,289.4 
				230.6,288.7 230.6,290.9 223.4,291.9 223.5,279.9 			"/>
		</g>
		<g>
			<path class="st9" d="M238.6,285.2l3.1,4.2l-2.8,0.4l-2.6-3.7l-1,0.1v4l-2.3,0.3v-11.9c0.8-0.2,2.1-0.5,3.2-0.7
				c2.9-0.4,4.6,0.7,4.6,3.4C240.7,283.1,239.8,284.4,238.6,285.2z M236.1,284c1.3-0.2,2.2-0.9,2.2-2.2c0-1.3-0.9-1.8-2.2-1.6
				c-0.2,0-0.6,0.1-0.8,0.1v3.8L236.1,284"/>
		</g>
	</g>
</g>
<g id="bb8e818f-fcec-4932-83d5-a78dcd6c97c4.psd">
	<g>
		<path class="st9" d="M225.5,191.3c-8.4,6-7.1,18.5,1.4,20.7c-1.2,2.9-1.7,4.2-3.2,6.8c-2.1,3.7-5.1,8.3-8.8,8.8
			c-3.3,0.5-4.1-1.7-8.5-1c-4.5,0.6-5.3,3-8.6,3.4c-3.7,0.5-6.5-2.9-8.6-6c-5.9-8.6-6.5-19.6-2.9-26c2.6-4.6,6.7-7.5,10.5-8.1
			c3.9-0.5,6.3,1.3,9.5,0.9c3.1-0.4,5-2.9,9.5-3.6C219.3,186.8,223,188.3,225.5,191.3z"/>
	</g>
	<g>
		<path class="st9" d="M205.1,189.2c-0.1,0-0.1,0-0.2,0c-0.5-3,0.9-6.3,2.5-8.7c1.8-2.6,4.9-4.8,7.6-5.4c0.5,3.1-0.8,6.4-2.4,8.8
			C210.8,186.6,208,188.8,205.1,189.2z"/>
	</g>
</g>
</svg>
