<?xml version="1.0" encoding="utf-8"?>
<!-- Generator: Adobe Illustrator 22.0.0, SVG Export Plug-In . SVG Version: 6.00 Build 0)  -->
<svg version="1.1" id="Layer_1" xmlns="http://www.w3.org/2000/svg" xmlns:xlink="http://www.w3.org/1999/xlink" x="0px" y="0px"
	 width="1200px" height="1200px" viewBox="0 0 1200 1200" style="enable-background:new 0 0 1200 1200;" xml:space="preserve">
<style type="text/css">
	.st0{fill:#FFFFFF;}
</style>
<g>
	<path class="st0" d="M600,60c298.5,0,540,241.5,540,540s-241.5,540-540,540S60,898.5,60,600S301.5,60,600,60 M600,0
		C268.5,0,0,268.5,0,600s268.5,600,600,600s600-268.5,600-600S931.5,0,600,0L600,0L600,0z"/>
	<path class="st0" d="M619.5,537c-10.5-10.5-28.5-10.5-40.5,0l-99,91.5c-10.5,10.5-10.5,27,0,36c10.5,10.5,28.5,10.5,40.5,0l48-43.5
		v238.5c0,18,15,31.5,31.5,31.5s31.5-15,31.5-31.5V621l48,43.5C690,675,708,675,720,664.5c10.5-10.5,10.5-27,0-36L619.5,537
		L619.5,537z"/>
	<path class="st0" d="M870,547.5V546c0-81-67.5-148.5-148.5-148.5c-18,0-34.5,4.5-49.5,10.5c-30-60-90-100.5-159-100.5
		c-99,0-180,79.5-180,180c0,1.5,0,3,0,4.5c-69,15-121.5,73.5-121.5,147c0,82.5,67.5,150,150,150h150v-45H360c-58.5,0-105-48-105-105
		c0-49.5,36-93,85.5-102l36-7.5v-36V489c0-75,60-135,135-135c51,0,96,28.5,120,75l18,37.5l39-15c10.5-4.5,22.5-6,33-6
		c57,0,103.5,46.5,103.5,103.5v1.5v45h45c42,0,76.5,34.5,76.5,75c0,42-33,75-75,75h-45v1.5h-135v45h180v-1.5c66,0,120-52.5,120-120
		C990,603,936,547.5,870,547.5L870,547.5z"/>
</g>
</svg>
