<?xml version="1.0" encoding="utf-8"?>
<!-- Generator: Adobe Illustrator 22.0.0, SVG Export Plug-In . SVG Version: 6.00 Build 0)  -->
<svg version="1.1" id="Layer_1" xmlns="http://www.w3.org/2000/svg" xmlns:xlink="http://www.w3.org/1999/xlink" x="0px" y="0px"
	 width="810.7px" height="648.3px" viewBox="0 0 810.7 648.3" style="enable-background:new 0 0 810.7 648.3;" xml:space="preserve"
	>
<style type="text/css">
	.st0{fill:#FFDE9F;}
	.st1{fill:#FFAE27;}
	.st2{fill:#FF9400;}
	.st3{fill:#2BBECF;}
	.st4{fill:#FFFFFF;}
	.st5{fill:#AAB4C8;}
	.st6{fill:#475470;}
</style>
<g>
	<rect x="143.7" y="173.9" class="st0" width="32.2" height="327.4"/>
	<rect x="175.8" y="235.8" class="st1" width="32.2" height="265.5"/>
	<rect x="272.6" y="50.5" class="st0" width="32.2" height="450.8"/>
	<rect x="304.7" y="132.9" class="st1" width="32.2" height="368.4"/>
	<rect x="337.2" y="275.9" class="st2" width="32.2" height="225.4"/>
	<rect x="401.5" y="254.8" class="st0" width="32.2" height="246.5"/>
	<rect x="433.7" y="286.9" class="st1" width="32.2" height="214.1"/>
	<rect x="466.1" y="368.4" class="st2" width="32.2" height="132.9"/>
	<rect x="530.4" y="367.8" class="st0" width="32.2" height="133.5"/>
	<rect x="562.6" y="412.8" class="st1" width="32.2" height="88.2"/>
	<rect x="595.1" y="457.2" class="st2" width="32.2" height="44.1"/>
	<rect x="659.4" y="125.2" class="st0" width="32.2" height="376.1"/>
	<rect x="691.5" y="173.9" class="st1" width="32.2" height="327.4"/>
	<rect x="724" y="222.6" class="st2" width="32.2" height="278.7"/>
	<rect x="208.3" y="337.5" class="st2" width="32.2" height="163.8"/>
</g>
<path class="st3" d="M417.6,66.5c-25.9,0-46.6,20.6-46.6,46.4c0,25.9,46.6,86.2,46.6,86.2s46.6-60.4,46.6-86.2
	C464.1,87.1,443.5,66.5,417.6,66.5z"/>
<path class="st4" d="M414,148.9h8.4v-8c6.6-1.5,11.3-5.7,11.3-13c0-7.3-3.3-11.6-12.8-14c-4.9-1.1-7.6-2.1-7.6-4.9
	c0-2.1,1.8-3.5,5.3-3.5c4.8,0,8.7,1.8,12.3,4.6V99.3c-2.5-1.5-5.1-2.5-8.5-2.9v-6.9H414v7c-7,1.3-11.9,6-11.9,13.3
	c0,7.4,3.6,11.5,13.2,13.8c4.7,1.1,7.1,2.1,7.1,4.8c0,3-3,3.9-6.5,3.9c-5.2,0-9.4-2.1-12.8-4.5v10.8c2.7,1.6,6.6,2.8,11,3.1v7.2H414
	z"/>
<rect x="143.7" y="536.7" class="st5" width="612.5" height="3.1"/>
<rect x="108.4" y="50.5" class="st5" width="3.1" height="450.5"/>
<g>
	<path class="st6" d="M327.2,575.3c6.3,0,11.3,4.6,11.3,11.3s-5,11.3-11.3,11.3c-6.3,0-11.3-4.6-11.3-11.3S320.9,575.3,327.2,575.3z
		 M327.2,578.6c-4.2,0-7.5,3.1-7.5,7.9c0,4.8,3.3,7.9,7.5,7.9c4.2,0,7.5-3.1,7.5-7.9C334.7,581.8,331.4,578.6,327.2,578.6z"/>
	<path class="st6" d="M346.4,597.5h-3.7v-21.8c1.3-0.2,3.7-0.4,5.4-0.4c5.7,0,8.9,2.5,8.9,7.1c0,3.2-1.8,5.5-4.3,6.5l6.6,8.6h-4.5
		l-5.8-7.7h-2.5v7.7H346.4z M346.4,586.6h1.8c3,0,4.9-1.3,4.9-4.1c0-2.5-1.7-4-5-4c-0.4,0-1.3,0-1.7,0.1V586.6z"/>
	<path class="st6" d="M378.1,580.9c-1.5-1.4-3.8-2.3-6.2-2.3c-4.4,0-7.6,3.1-7.6,7.9c0,4.9,3.3,8,7.6,8c1.4,0,2.4-0.1,3.2-0.5v-6.6
		h3.7v8.8c-1.7,1.1-4.4,1.6-7.1,1.6c-6.8,0-11.4-4.4-11.4-11.3c0-6.7,4.8-11.3,11.3-11.3c2.5,0,4.6,0.6,6.4,1.7v4H378.1z"/>
	<path class="st6" d="M387.1,592.3l-1.9,5.1h-4l8.5-21.8h4.6l8.5,21.8h-4.1l-1.9-5.1H387.1z M392,579.2l-3.7,10.1h7.5L392,579.2z"/>
	<path class="st6" d="M420.6,591.8v-16.1h3.6v21.8h-3.6l-11.2-16v16h-3.6v-21.8h3.8L420.6,591.8z"/>
	<path class="st6" d="M433.4,597.5h-3.7v-21.8h3.7V597.5z"/>
	<path class="st6" d="M454.8,580.9c-1.5-1.4-3.6-2.3-6-2.3c-4.3,0-7.4,3.2-7.4,7.9c0,4.8,3.2,7.9,7.5,7.9c2.5,0,4.4-0.7,6.2-2.2v4
		c-1.9,1.1-4,1.6-6.3,1.6c-6.7,0-11.2-4.6-11.2-11.3s4.7-11.3,11.2-11.3c2.2,0,4.3,0.5,6,1.5V580.9z"/>
	<path class="st6" d="M474.7,597.5H471V579h-6.9v-3.3h17.5v3.3h-6.9V597.5z"/>
	<path class="st6" d="M488.6,597.5h-3.7v-21.8c1.3-0.2,3.7-0.4,5.4-0.4c5.7,0,8.8,2.5,8.8,7.1c0,3.2-1.8,5.5-4.3,6.5l6.6,8.6h-4.5
		l-5.8-7.7h-2.5V597.5z M488.6,586.6h1.8c3,0,4.9-1.3,4.9-4.1c0-2.5-1.7-4-5-4c-0.4,0-1.3,0-1.7,0.1
		C488.6,578.6,488.6,586.6,488.6,586.6z"/>
	<path class="st6" d="M507.7,592.3l-1.9,5.1h-4l8.5-21.8h4.6l8.5,21.8h-4.1l-1.9-5.1H507.7z M512.6,579.2l-3.7,10.1h7.5L512.6,579.2
		z"/>
	<path class="st6" d="M526.3,597.5v-21.8h12.1v3.3H530v6.4h7.6v3.3H530v8.9h-3.7V597.5z"/>
	<path class="st6" d="M542.4,597.5v-21.8h12.1v3.3h-8.4v6.4h7.6v3.3h-7.6v8.9h-3.7V597.5z"/>
	<path class="st6" d="M562.2,597.5h-3.7v-21.8h3.7V597.5z"/>
	<path class="st6" d="M583.6,580.9c-1.5-1.4-3.6-2.3-6-2.3c-4.3,0-7.4,3.2-7.4,7.9c0,4.8,3.2,7.9,7.5,7.9c2.5,0,4.4-0.7,6.2-2.2v4
		c-1.9,1.1-4,1.6-6.3,1.6c-6.7,0-11.2-4.6-11.2-11.3s4.7-11.3,11.2-11.3c2.2,0,4.3,0.5,6,1.5V580.9z"/>
</g>
<g>
	<path class="st6" d="M54.9,205.7V202h21.8c0.2,1.3,0.4,3.7,0.4,5.4c0,5.7-2.5,8.9-7.1,8.9c-3.2,0-5.5-1.8-6.5-4.3l-8.6,6.6v-4.5
		l7.7-5.8v-2.5h-7.7V205.7z M65.8,205.7v1.8c0,3,1.3,4.9,4.1,4.9c2.5,0,4-1.7,4-5c0-0.4,0-1.3-0.1-1.7L65.8,205.7L65.8,205.7z"/>
	<path class="st6" d="M58.2,234.7h-3.3v-13.6h21.8v13.3h-3.3v-9.6h-5.9v8.9h-3.2v-8.9h-6.1V234.7z"/>
	<path class="st6" d="M54.9,245l21.8-8.3v4.1l-18,6.5l18,6.5v4l-21.8-8.3V245z"/>
	<path class="st6" d="M58.2,274.2h-3.3v-13.6h21.8v13.3h-3.3v-9.5h-5.9v8.9h-3.2v-8.9h-6.1V274.2z"/>
	<path class="st6" d="M60.6,293.5h16.1v3.6H54.9v-3.6l16-11.2h-16v-3.6h21.8v3.8L60.6,293.5z"/>
	<path class="st6" d="M76.7,302.2v3.7H63c-4.2,0-5.3,2.2-5.3,5.4c0,1.7,0.1,3,0.4,4.3h18.6v3.7H55.5c-0.6-2-1-5.4-1-8
		c0-5,1.8-9.2,7.8-9.2h14.4V302.2z"/>
	<path class="st6" d="M58.2,338.4h-3.3v-13.6h21.8v13.3h-3.3v-9.6h-5.9v8.9h-3.2v-8.9h-6.1V338.4z"/>
</g>
</svg>
